<svg xmlns="http://www.w3.org/2000/svg" width="92" height="92.03" viewBox="0 0 92 92.03">
  <defs>
    <style>
      .cls-1 {
        fill: #969696;
        fill-rule: evenodd;
        mix-blend-mode: darken;
      }
    </style>
  </defs>
  <path id="hotdog" class="cls-1" d="M1132.56,1078.21l-3.53-4.63,0.02-.02c0.14-.25.28-0.5,0.41-0.75,0.03-.05.05-0.1,0.08-0.16,0.11-.24.22-0.48,0.32-0.73,0.03-.06.05-0.13,0.08-0.19,0.07-.2.14-0.39,0.2-0.59,0.03-.09.06-0.19,0.09-0.28,0.06-.21.11-0.41,0.16-0.61,0.02-.11.05-0.22,0.07-0.34,0.04-.21.08-0.42,0.11-0.63,0.01-.12.03-0.24,0.04-0.36,0.02-.15.03-0.3,0.04-0.44,0.01-.18.02-0.35,0.02-0.52,0.01-.15.01-0.3,0.01-0.45-0.01-.12-0.01-0.23-0.01-0.35-0.01-.22-0.03-0.44-0.05-0.65-0.01-.11-0.03-0.22-0.04-0.32-0.03-.23-0.06-0.46-0.11-0.68a1.554,1.554,0,0,0-.05-0.23c-0.04-.21-0.09-0.41-0.14-0.61-0.02-.06-0.04-0.13-0.06-0.2q-0.1-.36-0.24-0.72c-0.02-.07-0.05-0.13-0.07-0.2-0.1-.24-0.2-0.49-0.32-0.73-0.02-.04-0.04-0.08-0.06-0.13-0.12-.24-0.24-0.48-0.38-0.71a0.219,0.219,0,0,0-.03-0.05c-0.14-.25-0.3-0.49-0.46-0.72-0.03-.04-0.06-0.09-0.09-0.13-0.16-.23-0.33-0.45-0.51-0.67-0.03-.04-0.07-0.07-0.1-0.11q-0.285-.345-0.6-0.66t-0.66-.6a1.1,1.1,0,0,1-.11-0.1c-0.22-.18-0.44-0.35-0.67-0.51-0.04-.03-0.09-0.06-0.13-0.09a6.757,6.757,0,0,0-.72-0.46c-0.02-.02-0.03-0.02-0.05-0.04-0.24-.13-0.47-0.26-0.71-0.37-0.05-.02-0.09-0.05-0.13-0.07-0.24-.11-0.49-0.21-0.73-0.31-0.07-.02-0.13-0.05-0.2-0.07q-0.36-.135-0.72-0.24l-0.21-.06c-0.19-.05-0.39-0.1-0.6-0.14a1.554,1.554,0,0,0-.23-0.05c-0.22-.05-0.45-0.08-0.68-0.11a3.106,3.106,0,0,0-.32-0.04c-0.21-.02-0.43-0.04-0.65-0.05-0.11-.01-0.23-0.01-0.35-0.01h-0.45l-0.51.03c-0.15.01-.3,0.02-0.45,0.04-0.12.01-.24,0.02-0.36,0.04-0.21.03-.42,0.07-0.63,0.11-0.11.02-.23,0.05-0.34,0.07-0.2.05-.4,0.1-0.6,0.16-0.1.03-.19,0.06-0.29,0.09-0.2.06-.39,0.13-0.59,0.2-0.06.03-.13,0.05-0.19,0.08a6.731,6.731,0,0,0-.73.32c-0.05.03-.1,0.05-0.15,0.08a7.985,7.985,0,0,0-.76.41c0,0.01-.01.01-0.02,0.01l-4.63-3.53a12.016,12.016,0,0,0-15.72,1.06l-46.58,46.59a12.016,12.016,0,0,0-1.05,15.73l3.53,4.63a0.038,0.038,0,0,1-.02.02c-0.15.25-.28,0.5-0.41,0.75-0.03.05-.05,0.11-0.08,0.16-0.11.24-.22,0.48-0.32,0.73-0.03.06-.05,0.13-0.08,0.2-0.07.19-.14,0.38-0.2,0.57-0.03.1-.06,0.2-0.09,0.31-0.06.19-.11,0.39-0.16,0.59-0.02.11-.05,0.23-0.07,0.34-0.04.21-.08,0.42-0.11,0.62-0.01.13-.03,0.25-0.04,0.37-0.02.15-.03,0.29-0.04,0.44-0.01.17-.02,0.35-0.02,0.53-0.01.14-.01,0.29-0.01,0.44,0.01,0.12.01,0.24,0.01,0.35,0.01,0.22.03,0.44,0.05,0.65,0.01,0.11.03,0.22,0.04,0.32,0.03,0.23.06,0.46,0.11,0.68a2.048,2.048,0,0,0,.05.24c0.04,0.2.09,0.4,0.14,0.6,0.02,0.06.04,0.13,0.06,0.2q0.1,0.36.24,0.72c0.02,0.07.05,0.13,0.07,0.2,0.1,0.24.2,0.49,0.31,0.73a0.539,0.539,0,0,1,.07.13c0.12,0.24.24,0.48,0.38,0.71a0.219,0.219,0,0,0,.03.05c0.14,0.25.3,0.49,0.46,0.72,0.03,0.04.06,0.09,0.09,0.13,0.16,0.23.33,0.45,0.51,0.67,0.03,0.04.07,0.07,0.1,0.11q0.285,0.345.6,0.66c0.21,0.21.44,0.41,0.66,0.6a1.1,1.1,0,0,1,.11.1c0.22,0.18.44,0.35,0.67,0.51,0.04,0.03.09,0.06,0.13,0.09,0.23,0.17.47,0.32,0.72,0.47a0.219,0.219,0,0,0,.05.03c0.24,0.13.47,0.26,0.71,0.37,0.05,0.02.09,0.05,0.13,0.07,0.24,0.11.49,0.21,0.73,0.31,0.07,0.02.13,0.05,0.2,0.07q0.36,0.135.72,0.24c0.07,0.02.14,0.04,0.2,0.06,0.2,0.05.4,0.1,0.6,0.14a2.048,2.048,0,0,0,.24.05c0.22,0.05.45,0.08,0.68,0.11a3.106,3.106,0,0,0,.32.04c0.21,0.02.43,0.04,0.65,0.05,0.11,0.01.23,0.01,0.35,0.01h0.44l0.53-.03c0.14-.01.29-0.02,0.43-0.04s0.25-.02.37-0.04c0.21-.03.42-0.07,0.63-0.11,0.11-.02.23-0.05,0.34-0.07,0.2-.05.4-0.1,0.59-0.16,0.1-.02.2-0.06,0.3-0.09,0.2-.06.39-0.13,0.58-0.2,0.07-.03.14-0.05,0.2-0.08a6.731,6.731,0,0,0,.73-0.32c0.05-.03.1-0.05,0.15-0.08a6.787,6.787,0,0,0,.75-0.41,0.037,0.037,0,0,1,.03-0.01l4.63,3.53a12.016,12.016,0,0,0,15.72-1.06l46.58-46.59A12.016,12.016,0,0,0,1132.56,1078.21Zm-68.9,56.31c-0.1.07-.2,0.14-0.3,0.22-0.12.09-.25,0.18-0.37,0.26s-0.24.14-.36,0.21c-0.09.06-.19,0.12-0.28,0.17a9.456,9.456,0,0,1-1.41.57h-0.01a6.253,6.253,0,0,1-.72.17c-0.03.01-.05,0.01-0.08,0.02q-0.33.06-.66,0.09a0.487,0.487,0,0,1-.12.01c-0.21.02-.41,0.03-0.62,0.03h-0.16c-0.19-.01-0.38-0.01-0.57-0.03-0.07-.01-0.14-0.01-0.2-0.02-0.18-.02-0.35-0.05-0.52-0.08-0.08-.01-0.16-0.03-0.24-0.04-0.16-.04-0.32-0.07-0.48-0.12-0.08-.02-0.17-0.05-0.26-0.07-0.14-.05-0.29-0.1-0.43-0.16-0.09-.03-0.19-0.06-0.28-0.1-0.13-.06-0.27-0.13-0.41-0.19-0.09-.05-0.18-0.09-0.27-0.14-0.13-.07-0.26-0.15-0.39-0.23-0.09-.05-0.17-0.1-0.26-0.16-0.14-.09-0.27-0.2-0.4-0.3a1.66,1.66,0,0,1-.21-0.16,7.151,7.151,0,0,1-1.1-1.1,1.66,1.66,0,0,1-.16-0.21c-0.1-.13-0.21-0.26-0.3-0.4-0.06-.09-0.11-0.17-0.16-0.26-0.08-.13-0.16-0.26-0.23-0.39-0.05-.09-0.09-0.18-0.14-0.27-0.06-.14-0.13-0.28-0.19-0.41-0.03-.09-0.07-0.19-0.1-0.28-0.06-.14-0.11-0.29-0.16-0.44-0.02-.08-0.05-0.17-0.07-0.25l-0.12-.48c-0.01-.08-0.03-0.16-0.04-0.24-0.03-.17-0.06-0.34-0.08-0.52-0.01-.06-0.01-0.13-0.02-0.2-0.02-.19-0.02-0.38-0.03-0.57v-0.16c0-.21.01-0.41,0.03-0.62,0-.04.01-0.08,0.01-0.12q0.03-.33.09-0.66c0.01-.03.01-0.05,0.02-0.08a6.253,6.253,0,0,1,.17-0.72,0.01,0.01,0,0,1,.01-0.01,8.118,8.118,0,0,1,.56-1.41c0.06-.1.12-0.19,0.17-0.28l0.21-.36a3.176,3.176,0,0,1,.27-0.37l0.21-.3,0.04-.04a7.234,7.234,0,0,1,.53-0.59l60.64-60.66a7.234,7.234,0,0,1,.59-0.53l0.04-.04,0.3-.21c0.12-.09.24-0.19,0.37-0.27a3.972,3.972,0,0,1,.35-0.2c0.1-.06.19-0.12,0.29-0.18a9.456,9.456,0,0,1,1.41-.57h0.02a5.645,5.645,0,0,1,.71-0.17c0.03-.01.05-0.01,0.08-0.02q0.33-.06.66-0.09a0.487,0.487,0,0,1,.12-0.01c0.21-.02.41-0.03,0.62-0.03h0.16c0.19,0.01.38,0.01,0.57,0.03,0.07,0.01.14,0.01,0.2,0.02,0.18,0.02.35,0.05,0.52,0.08,0.08,0.01.16,0.03,0.24,0.04,0.16,0.04.32,0.07,0.48,0.12,0.08,0.02.17,0.05,0.25,0.07,0.15,0.05.3,0.1,0.44,0.16,0.09,0.03.19,0.06,0.28,0.1,0.13,0.06.27,0.13,0.4,0.19,0.1,0.05.19,0.09,0.28,0.14,0.13,0.07.26,0.15,0.39,0.23,0.09,0.05.17,0.1,0.26,0.16,0.14,0.09.27,0.2,0.4,0.3,0.07,0.05.14,0.1,0.21,0.16a7.151,7.151,0,0,1,1.1,1.1,1.66,1.66,0,0,1,.16.21c0.1,0.13.21,0.26,0.3,0.4,0.06,0.09.11,0.17,0.16,0.26,0.08,0.13.16,0.26,0.23,0.39,0.05,0.09.09,0.18,0.14,0.28,0.06,0.13.13,0.27,0.19,0.4,0.03,0.09.07,0.19,0.1,0.28a3.664,3.664,0,0,1,.15.43c0.03,0.09.06,0.18,0.08,0.26l0.12,0.48c0.01,0.08.03,0.16,0.04,0.24,0.03,0.17.06,0.34,0.08,0.52a1.5,1.5,0,0,0,.02.2l0.03,0.57v0.16c0,0.21-.01.41-0.03,0.62,0,0.04-.01.08-0.01,0.12q-0.03.33-.09,0.66c-0.01.03-.01,0.05-0.02,0.08a5.645,5.645,0,0,1-.17.71c0,0.01,0,.02-0.01.02a7.436,7.436,0,0,1-.57,1.41c-0.05.1-.11,0.2-0.17,0.3s-0.13.23-.2,0.34c-0.08.13-.18,0.25-0.27,0.38-0.07.09-.14,0.19-0.21,0.29l-0.04.04a7.234,7.234,0,0,1-.53.59l-60.64,60.66a7.234,7.234,0,0,1-.59.53Zm-14.74-30.01,46.58-46.59a8.561,8.561,0,0,1,11.21-.76l4,3.06-59.49,59.51-3.06-4A8.574,8.574,0,0,1,1048.92,1104.51Zm33.58,33.59a8.562,8.562,0,0,1-11.21.76l-4-3.05,59.49-59.52,3.06,4.01v-0.01a8.586,8.586,0,0,1-.76,11.22Zm28.57-58.82a13.748,13.748,0,0,0,3.46-6.02,0.657,0.657,0,0,0-1.28-.3c-0.02.07-1.63,6.66-8.19,8.19-7.34,1.72-9.23,9-9.3,9.28-0.02.07-1.9,6.32-7.63,7.66-6.36,1.49-8.49,8.11-8.65,8.61-0.11.31-2.49,6.58-7.77,7.81-6.11,1.43-8.15,7.93-8.23,8.21a0.658,0.658,0,0,0,.44.82,0.666,0.666,0,0,0,.82-0.44c0.02-.06,1.91-6.05,7.27-7.31,6.09-1.42,8.62-8.37,8.73-8.7,0.02-.06,1.98-6.38,7.69-7.72,6.47-1.51,8.51-8.28,8.6-8.59,0.02-.07,1.76-6.81,8.33-8.35A11.666,11.666,0,0,0,1111.07,1079.28Z" transform="translate(-1043 -1052)"/>
</svg>
