<?xml version="1.0" standalone="no"?>
<!DOCTYPE svg PUBLIC "-//W3C//DTD SVG 20010904//EN"
 "http://www.w3.org/TR/2001/REC-SVG-20010904/DTD/svg10.dtd">
<svg version="1.0" xmlns="http://www.w3.org/2000/svg"
 width="700.000000pt" height="700.000000pt" viewBox="0 0 700.000000 700.000000"
 preserveAspectRatio="xMidYMid meet">
<metadata>
Created by potrace 1.11, written by Peter Selinger 2001-2013
</metadata>
<g transform="translate(0.000000,700.000000) scale(0.100000,-0.100000)"
fill="#000000" stroke="none">
<path d="M4286 6984 c-131 -26 -234 -69 -353 -148 -76 -50 -3723 -3695 -3772
-3770 -115 -175 -161 -335 -157 -541 6 -238 58 -364 268 -643 77 -103 150
-197 161 -210 l21 -22 -28 -58 c-72 -146 -96 -257 -92 -422 6 -224 78 -402
225 -562 257 -278 656 -354 1011 -192 l81 37 22 -20 c12 -12 101 -80 197 -152
96 -72 180 -134 185 -139 12 -9 142 -73 170 -83 123 -44 180 -53 325 -53 107
0 152 4 220 22 98 26 265 106 330 160 74 60 3675 3661 3716 3716 57 75 128
223 154 318 17 62 23 113 24 203 1 150 -7 215 -40 313 -37 111 -82 191 -182
323 -71 95 -135 179 -215 286 -6 8 -1 27 13 55 112 215 130 465 49 698 -74
213 -249 403 -457 494 -123 54 -188 68 -332 71 -159 4 -265 -17 -395 -78 -71
-34 -80 -36 -99 -23 -12 8 -104 78 -206 156 -102 77 -214 155 -250 174 -67 35
-188 79 -250 91 -71 14 -275 13 -344 -1z m369 -278 c93 -29 156 -69 353 -221
l142 -110 -2262 -2262 c-1709 -1709 -2265 -2260 -2273 -2250 -5 7 -60 78 -122
158 -187 244 -225 329 -227 509 -1 58 2 121 6 141 14 67 55 167 94 228 27 42
595 616 1874 1894 1779 1777 1837 1834 1910 1871 113 56 195 74 320 71 80 -2
124 -9 185 -29z m1299 -316 c112 -28 190 -73 277 -160 199 -198 234 -486 91
-735 -28 -48 -510 -535 -2371 -2398 -1285 -1285 -2358 -2355 -2386 -2376 -115
-90 -216 -125 -365 -125 -184 0 -302 46 -426 169 -92 91 -149 193 -173 310
-13 65 -6 229 13 285 20 62 66 157 93 192 10 13 1074 1081 2366 2374 2457
2459 2396 2400 2527 2448 109 40 238 46 354 16z m554 -1411 c135 -178 173
-241 203 -339 24 -78 31 -207 17 -300 -11 -73 -51 -172 -101 -246 -33 -50
-533 -555 -1859 -1880 -997 -996 -1833 -1825 -1858 -1841 -116 -76 -224 -107
-370 -107 -184 1 -267 37 -518 227 -95 71 -171 131 -170 133 2 2 1020 1020
2262 2264 1765 1765 2262 2258 2271 2248 7 -7 62 -79 123 -159z"/>
<path d="M5380 5441 c-20 -6 -30 -21 -52 -86 -102 -287 -313 -491 -583 -565
-219 -59 -330 -122 -471 -265 -113 -115 -199 -262 -259 -440 -88 -262 -271
-474 -485 -559 -25 -10 -82 -29 -128 -42 -151 -44 -267 -115 -381 -233 -91
-95 -197 -267 -237 -386 -48 -145 -150 -305 -273 -426 -102 -101 -186 -152
-320 -191 -204 -60 -345 -156 -464 -314 -72 -95 -117 -176 -153 -270 -21 -55
-21 -63 -8 -83 29 -40 81 -20 99 39 4 14 21 52 38 85 109 219 273 370 467 430
120 38 187 64 245 98 180 105 353 319 445 552 76 190 140 296 250 411 98 102
200 160 370 208 296 84 510 305 633 653 107 301 272 490 517 591 42 17 87 33
100 35 50 9 112 28 158 49 26 12 49 22 52 23 45 11 202 128 265 197 111 122
235 356 235 442 0 32 -29 54 -60 47z"/>
</g>
</svg>
